<svg xmlns="http://www.w3.org/2000/svg" width="210" height="210" viewBox="0 0 1080 1080" fill="white" class="h-[220px] w-[220px] animate-spin-slow fill-white"><path d="M498.8 191.2c-4.4 1.2-11.2 6.8-13.5 11.2l-1.7 3.1-.9-5.3-.9-5.3-4.6.7c-2.6.3-5.1 1-5.6 1.5-.9.8 9.1 65.8 10.3 67.1.6.6 9.7-.5 10.6-1.3.2-.3-.9-8.6-2.6-18.5-3.8-21.8-4-28.8-1.3-33.5 2.5-4.3 7.3-7.5 12.4-8.4 3.2-.5 4-1.1 4-2.8 0-3.6-1.2-9.7-1.9-9.6-.3.1-2.2.5-4.3 1.1zM625.5 225.8c-15.9 19.6-28.9 35.9-28.8 36.1.1.3 1.6 1 3.5 1.7 7.9 2.7 7 3 13.8-5.6 3.5-4.4 6.6-8 6.9-7.9.3 0 8.5 2.8 18.1 6.3l17.5 6.2.3 10.5.3 10.6 4 1.2c2.3.7 4.7 1.5 5.5 1.8 1.2.4 1.4-5 1.4-34.8 0-19.5-.3-40.4-.7-46.6l-.6-11.2-5.1-1.7c-2.8-.9-5.5-1.8-6.1-2-.5-.2-14 15.8-30 35.4zm31.1 25.9c-.8.8-29.7-8.9-29.3-9.9.1-.3 6.5-8.4 14.2-17.9l14-17.3.9 22.2c.4 12.3.5 22.6.2 22.9zM424 209c-20.4 5.2-31.4 22.1-26.6 40.8 3.3 12.9 10.3 22.4 20.1 27.2 4.1 2 6.5 2.4 13.5 2.4 7.4 0 9.4-.4 15.1-3.1 11-5.1 17.8-14 19.4-25.6.8-5.4.6-5.5-6.6-3-3.4 1.2-4.9 2.3-4.9 3.6 0 2.7-2.8 8.9-5.3 11.5-3.3 3.6-9.3 6.3-15.3 6.9-4.4.5-6.2.1-10.7-2.1-5.4-2.6-11.5-9.4-10.3-11.4.3-.5 11.8-5.1 25.6-10.2 25-9.2 25.1-9.3 24.5-11.9-2.4-9.8-9.6-19.1-18.1-23-5.1-2.5-15.1-3.5-20.4-2.1zm17.2 12.5c3.8 2.5 8.1 8.1 7.5 9.9-.2.6-38.9 15.6-40.3 15.6-.9 0-1.2-9-.3-12.5 3.4-13.5 21.5-20.6 33.1-13zM712.2 227.8c-3.8 5.9-14.4 22.1-23.6 36-9.1 13.8-16.6 25.6-16.6 26.2 0 1 6.9 6 8.2 6 .4 0 5.3-6.8 10.8-15l10.1-15 7.2 4.8c19.5 13.2 30.9 14.6 41.4 4.9 7.7-7.1 10.5-15.4 8.4-24.4-2-8.2-6.6-13.1-21.3-23-7.3-5-14.3-9.5-15.4-10.1-2-1.1-2.7-.4-9.2 9.6zm32.1 18.2c5 5.9 4.5 13.1-1.4 20.3-6.4 7.8-13.4 7.2-27.8-2.3l-9.1-6 9-13.5 9-13.5 8.9 5.9c4.8 3.3 10 7.3 11.4 9.1zM356.1 244.1c-6.9 1.4-12.5 4.6-17.9 10.3-5 5.3-8.2 12.5-8.2 18.5 0 2.2-.5 1.9-3.6-2.7l-3.6-5.1-4.4 3.1c-2.4 1.7-4.4 3.4-4.4 3.8 0 .4 47.4 68.8 56.2 80.9l1.6 2.3 4.6-3.2c2.9-1.9 4.4-3.6 3.9-4.3-.4-.7-6-8.8-12.5-18.1s-11.7-17.1-11.5-17.2c.1-.2 2.3.2 4.7.7 16.8 3.9 35.3-10.6 36.8-28.7.8-10.4-2.9-20.2-11.3-29.3-8.4-9.2-19.5-13.2-30.4-11zm14.7 13.5c5.7 2.8 10.2 7.8 13.3 15 3.2 7.1 2.4 16.4-1.9 22.6-6.3 9.2-18.3 12.3-28.7 7.4-11.1-5.1-18.5-19.5-15.6-30.2 3.8-14.3 19.7-21.4 32.9-14.8zM551.1 247.6c-1.2 1.5-2.1 3.7-2.1 4.9 0 3.8 3.7 7.5 7.6 7.5 4.5 0 7.4-2.9 7.4-7.5 0-7.2-8.6-10.4-12.9-4.9zM754.2 297.1l-29.4 32 3.9 3.3c2.1 1.8 4.2 3.4 4.6 3.5.9.2 58.7-62.4 58.7-63.7 0-1.1-6.4-7.2-7.5-7.1-.6 0-14.2 14.4-30.3 32zM287.3 302.1c-7.4 2.8-15.6 10.6-19.3 18.2-7.1 14.8-4 29.3 8.9 40.9 19.2 17.3 44.4 12.2 55.8-11.1 2.4-4.8 2.8-6.8 2.8-14.1s-.4-9.3-2.8-14.3c-3.6-7.2-11.2-14.8-18.6-18.4-7.6-3.8-19.1-4.3-26.8-1.2zm20.2 10.8c10.3 4.8 17.5 14.9 17.5 24.6-.1 14.1-13.9 25.8-26.8 22.5-9.2-2.3-18.2-9.9-21.7-18.4-4.4-10.4 1.8-24.3 13-29.2 4.4-1.9 13.3-1.7 18 .5zM800.3 343.4c-20.5 12.1-37.3 22.4-37.3 22.8 0 2.2 17.5 29.3 22.4 34.5 17.1 18.4 43.3 17.7 62.7-1.7 3-3 6.8-8.2 8.5-11.5 2.7-5.5 2.9-6.9 2.9-16.5-.1-8.9-.4-11.4-2.6-16.5-2.4-5.8-17.4-32.1-18.7-32.9-.4-.2-17.5 9.6-37.9 21.8zm41.5 2.2c6.6 11.1 8.6 17.7 8 25.9-1 11.5-8.1 20.6-21.6 27.2-6.9 3.4-8.4 3.8-15.6 3.8-13.5 0-20.1-4.8-30.6-22.3-2.8-4.6-5-8.6-5-9 0-1 57.3-35 58.5-34.8.6.1 3.4 4.3 6.3 9.2zM217.8 350.8l-2.7 4.8 39.8 23.2c21.9 12.8 40 23.2 40.4 23.2.8 0 6.1-9 5.6-9.5-.8-.7-79.3-46.5-79.9-46.5-.3 0-1.7 2.2-3.2 4.8zM236.3 394c-9.9 2.1-19.4 10.4-23.4 20.8-3.1 8-3.2 19.9-.2 26.4 8 17.5 33.6 26.3 50.9 17.5 14.4-7.4 22-26.9 16.4-42-1.8-4.9-8.2-13.7-9.9-13.7-.4 0-1.5 2.4-2.5 5.4l-1.8 5.3 2.7 4.1c9.2 14-1.6 33.5-18.6 33.5-3 0-6-.3-6.6-.6-.7-.4 2.4-9.8 8.3-25.4 5.2-13.7 9.4-25.3 9.4-26 0-1.6-9.3-4.9-15.5-5.6-2.7-.3-6.9-.2-9.2.3zm12.1 12.1c.2.2-3.1 9.5-7.2 20.6l-7.6 20.1-2.7-1.3c-3.7-2-8.5-7.7-9.9-12.1-3.7-11.1 4.5-25.8 15.6-28.2 3.4-.7 10.9-.1 11.8.9zM834.3 420.5c-23.7 6.6-33.9 27.3-24 48.9 4.6 10 13.1 16.6 23.6 18.2 3.9.6 4.3.5 3.8-1.2-.3-1-1-3.7-1.6-5.9-.9-3.6-1.5-4.2-6-5.8-6.2-2.2-10.6-7.1-12.7-14.3-3.1-10.6 1.4-20.8 11.3-25.8l3.2-1.6 2 6.7c1.1 3.8 3.6 12.6 5.6 19.8 2 7.1 4.5 16.1 5.6 19.8l2 6.9 3.7-.6c6.3-1.1 15.9-6.4 19.7-10.8 5.5-6.5 7.8-13.8 7.2-22.9-.9-13.8-8.3-25.2-19.6-30.2-5.9-2.6-16.9-3.2-23.8-1.2zm23.3 13c7.5 4.4 11.5 13.9 9.9 24.1-.8 5.3-6.6 12.5-11.5 14.3-3 1-3 1-4.6-4.7-7.6-25.9-10-35.8-9-36.5 2-1.4 10.7.2 15.2 2.8zM198 463.2c0 1.3-.3 3.9-.6 5.9l-.6 3.6 27.7 14.4c15.3 7.8 27.4 14.4 26.9 14.6-.5.1-13.9 3.2-29.9 6.8-15.9 3.7-29.3 6.9-29.7 7.3-.3.4-.9 3.2-1.3 6.2l-.7 5.6 35.9-9c19.7-4.9 35.9-9 36-9 .1-.1.5-3.1 1-6.7l.9-6.6-32.1-17.6c-17.7-9.7-32.4-17.7-32.8-17.7-.4 0-.7 1-.7 2.2zM851.8 504.9 819 519.5v6.7c0 3.8.1 6.8.3 6.8.2 0 16 5.4 35.2 12 19.2 6.6 34.9 11.9 35 11.7.1-.1-.1-2.9-.4-6.2l-.6-5.9-28.7-9.1c-15.9-4.9-28.8-9.3-28.8-9.6 0-.3 12.5-5.8 27.8-12.2l27.7-11.6.3-6c.2-4.5 0-6.1-1-6-.7.1-16 6.7-34 14.8zM214.5 539.4c-6.7 2.1-10 4.3-14.8 9.6-6.1 6.8-8.1 12.8-7.5 23.4 1 18.4 12.3 30.6 30 32.2 17.5 1.6 33.4-7 38.8-21.2 1.8-4.9 2.1-7.4 1.8-14.4-.7-13.6-6.4-23.1-17.1-28.4-7.3-3.7-7.7-3.5-7.7 2.9 0 5.1.2 5.5 3.3 7.1 8 4.1 11.8 10.5 11.8 19.9 0 7.3-2.3 12.8-7.1 16.8-3.1 2.6-10.5 5.5-11.5 4.5-.5-.5-2.4-16.8-5.3-46.3l-.7-7-5-.2c-2.7-.1-6.8.4-9 1.1zm5.9 12.8c.3 1.3 1.2 9.9 2.1 19.3.9 9.3 1.8 18.1 2.1 19.4.5 2.3.4 2.3-4.6 1.9-10.7-1.1-18-9.8-18-21.4 0-7.4 1.1-10.8 4.8-14.8 2.6-2.8 9.4-6.5 11.9-6.6.7 0 1.5 1 1.7 2.2zM837.3 564.5c-13.4 3.6-21.8 13.5-24.2 28.3-1.3 8-.1 14.8 3.8 21.6 2.5 4.5 9.9 11.6 12 11.6.5 0 1.3-2.7 1.8-5.9.9-5.9.9-6-1.9-8.1-4.2-3.1-6.1-7.7-6.2-14.6 0-12.4 7.8-21.4 19.4-22.2 3.3-.2 6 0 6 .4 0 .5-2.3 12.6-5 26.9-2.7 14.3-5 26.1-5 26.2 0 .9 8.8 2.3 14.5 2.3 17.1 0 30.1-13.1 31.3-31.5.6-10.1-1.5-16.9-7.4-23.4-5.5-6.1-13.5-10.5-21.9-12-7.5-1.4-10.7-1.3-17.2.4zm25.5 14.4c7.4 3.8 11.2 10.2 11.2 18.8-.1 12.9-8.8 22.3-20.7 22.3-2.5 0-3.3-.4-3.3-1.8-.1-3.6 7.4-41.2 8.2-41.2.5 0 2.5.9 4.6 1.9zM235.5 614.1c-16.4 2-32.6 13.4-37.5 26.6-2.7 7.4-3.6 16.7-2.1 24.1 1.8 9.1 12.6 36.8 14.2 36.4 1.7-.4 80.2-30.2 80.6-30.6.5-.5-10.9-29.3-13.9-34.9-1.8-3.2-5.8-8.3-9.4-11.6-9.2-8.7-18.5-11.6-31.9-10zm20 13.7c4.6 2.3 11.5 9.3 14 14.2 2.1 4 8.7 21.1 8.3 21.4-.2.1-14 5.5-30.8 11.8-16.8 6.4-31.2 11.9-32 12.2-1.2.5-2.4-1.7-5.5-10.1-3.6-9.6-4-11.8-4-19.8s.3-9.5 2.7-13.6c4.8-8.2 14.8-15.2 25.5-17.9 6.1-1.5 17.2-.6 21.8 1.8zM802.6 634.1c-3.3 8.2-7.2 5.9 40.1 23.5 23.5 8.7 43.2 15.9 43.7 15.9 1 0 5.2-9.3 4.5-9.9-.2-.3-19.1-7.4-41.9-15.9-22.8-8.5-42.3-15.8-43.3-16.2-1.3-.6-2 .1-3.1 2.6zM797.3 664c-7.4 3-14.5 10.1-18.5 18.5-2.9 6.1-3.3 8-3.3 15 0 7.1.4 8.9 3.3 14.7 3.9 7.9 9 12.8 18.2 17.2 5.8 2.8 7.5 3.1 15.5 3.1 7.3 0 9.9-.4 13.6-2.3 6.6-3.2 13.3-10.3 17.1-18 2.9-5.8 3.3-7.6 3.3-14.7 0-6.6-.5-9-2.7-13.7-3.4-7.3-10.1-13.9-18.5-17.9-8.6-4.3-20-5-28-1.9zm22 11.8c5.7 2.5 12.3 8.5 14.8 13.5 4.4 8.5 1.8 20-6.1 27.1-9.4 8.5-24.8 6.7-35.2-4.1-9.4-9.7-9.1-23.8.6-33.2 6.5-6.3 16.3-7.6 25.9-3.3zM732.7 694.7l-3.7 3.8 16 16 16 16-6.9.1c-12.2.1-22.3 7-27.8 19.1-2.2 4.7-2.5 6.6-2.2 13.6.3 6.6 1 9.3 3.3 14 3.7 7.2 12.8 16 20.3 19.4 20 9.2 44.4-5.7 44.7-27.3.1-3.5.4-6.4.7-6.4.4 0 2.2 1.7 4.2 3.9l3.5 3.9 4.2-4 4.3-4-35.9-35.9C753.7 707.1 737.3 691 737 691c-.3 0-2.2 1.7-4.3 3.7zm36.1 46.2c9.8 5 15.6 14 15.7 24.2 0 5.6-.4 7.3-3 11.5-10.4 16.8-33.9 14.2-43.4-4.7-4-7.9-4.1-13.5-.5-20.7 5.9-11.8 19.5-16.3 31.2-10.3zM301.2 713c-11.6 2.4-25.1 13.8-29.2 24.7-1.8 4.7-2.1 7.3-1.8 13.3.6 9.4 3.7 15.9 10.8 22.3 5.7 5.2 12.1 7.7 19.4 7.7h5.1l-4.5 4.3c-2.5 2.3-8.5 7.9-13.5 12.4l-9 8.3 4.1 4 4 4.1 31-28.2c17-15.4 32.5-29.6 34.4-31.5l3.4-3.4-3.9-3.9-3.8-4-4.1 3.7-4.1 3.7-.6-8c-.6-8.6-2-12.4-7.6-19.2-6.2-7.7-19.8-12.4-30.1-10.3zm14.1 12.1c4.9 1.3 11.5 7.3 13.8 12.4 6.2 13.5-3 30.5-18.8 35.1-19.1 5.6-35.4-14.7-26.3-32.7 6.1-11.8 19.4-18.1 31.3-14.8zM358.5 767.3c-3.8 1.5-9.5 5-9.5 5.7 0 .3 2.2 1.9 4.9 3.7l4.9 3.2 3.8-2c16.6-8.4 36.3 12.5 27.7 29.4-1.4 2.8-1.5 2.8-4.1 1.1-1.5-1-11.5-7.5-22.3-14.6-10.8-7-20.1-12.8-20.7-12.8-1.7 0-6.9 8.1-8.7 13.9-1.3 3.7-1.6 7.2-1.3 12 .9 12.2 7.7 21.2 20.7 27.4 17.1 8.1 35.8.3 45.2-18.8 3.1-6.4 3.4-7.7 3.4-16 0-7.6-.4-9.8-2.4-13.8-3.1-6-11-13.5-17.6-16.7-5.8-2.9-18.9-3.8-24-1.7zm18.3 46c4 2.5 6.2 4.5 6 5.5-.2.9-2.2 3-4.6 4.6-3.5 2.5-5.5 3.1-11 3.4-6 .3-7.3 0-12-2.8-9.9-5.8-14-17.2-9.6-26.5l1.6-3.4 11.6 7.6c6.5 4.2 14.5 9.4 18 11.6zM691.4 775c-9.5 1.9-20.2 9.3-24.9 17.3-3.5 6.2-5.3 21.7-2.4 21.7.6 0 3-1.1 5.4-2.5 4-2.4 4.3-2.8 4.7-8 .5-6.3 3.7-11.1 10-15.3 5.6-3.7 15.7-4.3 21.5-1.3 3.5 1.7 10 7.9 9.1 8.6-.2.1-11 6.4-24.1 14L667 823.2l2.7 5c3.7 6.8 12.1 14.2 18.4 16.3 14.9 5 34.2-3.4 41.6-18 8.1-15.9-.8-39.9-18.2-48.8-2.6-1.3-13.8-3.9-15.4-3.6-.3.1-2.4.5-4.7.9zm29.5 32.1c2.5 7.1.6 15.6-4.7 21.3-3.7 3.9-11.8 7.6-16.7 7.6-6.5-.1-15.5-5.3-16.7-9.7-.2-1 34.3-22.2 36.4-22.3.3 0 1.1 1.4 1.7 3.1zM639.8 799.9c-2.6.9-4.9 1.9-5.2 2.2-.3.3 2.6 9.7 6.4 20.9 3.9 11.2 7 21.9 7 23.6 0 7-4.1 12.8-11.3 16-2.3 1-4.3 1.9-4.5 2-.2.1.4 2.5 1.4 5.3 1.9 6 3.3 6.4 9.1 2.2 4.7-3.4 7.9-7.5 8.9-11.5.8-3.2 1.7-2.5 3.4 2.6.6 2.1 1.6 3.8 2.1 3.8.7 0 8.9-3 9.7-3.5.2-.2-15.7-46.9-21-61.6l-1.3-3.6-4.7 1.6zM410.8 839l-23.6 39 3.6.9c9.5 2.5 6.7 5.7 27.2-30.6l18.5-32.7.5 37.9.5 37.9 6 1.8c4.5 1.3 6.1 1.4 6.7.5.5-.7 9.2-15.2 19.5-32.2 10.2-17.1 18.9-31.3 19.2-31.7.3-.4.4 16.5.3 37.5l-.4 38.2 4.6 1.3c2.6.6 5.1 1.2 5.6 1.2.6 0 1-16.2 1-45.4v-45.4l-4.7-1.1c-2.7-.7-5.5-1.4-6.4-1.7-1.1-.3-2.7 1.4-5.4 5.8-2.1 3.5-10.9 17.5-19.4 31.3l-15.6 25-.6-32.5c-.3-17.9-.7-34.4-.8-36.7-.1-4.1-.1-4.2-5.5-5.7-3-.9-5.8-1.6-6.3-1.6-.4 0-11.4 17.6-24.5 39zM570.1 816.2c-5.4 2-6.8 8.2-2.6 12.3 6.3 6.4 15.8-1.4 11.5-9.5-1.3-2.5-5.9-3.9-8.9-2.8z"></path></svg>